<svg xmlns="http://www.w3.org/2000/svg" width="21.768" height="25.5" viewBox="0 0 21.768 25.5">
  <g id="avatar" transform="translate(-35.821 0.25)">
    <g id="Group_134" data-name="Group 134" transform="translate(36.073)">
      <path id="Path_105" data-name="Path 105" d="M142.394,13.471h.166a4.777,4.777,0,0,0,3.65-1.579c1.993-2.247,1.662-6.1,1.626-6.466a5.282,5.282,0,0,0-2.511-4.7A5.756,5.756,0,0,0,142.539,0h-.088a5.765,5.765,0,0,0-2.785.709,5.285,5.285,0,0,0-2.542,4.716c-.036.368-.368,4.219,1.626,6.466A4.758,4.758,0,0,0,142.394,13.471Zm-3.888-7.916c0-.016.005-.031.005-.041.171-3.712,2.806-4.111,3.935-4.111h.062c1.4.031,3.774.6,3.935,4.111a.1.1,0,0,0,.005.041c.005.036.368,3.557-1.279,5.41a3.393,3.393,0,0,1-2.666,1.108h-.052a3.382,3.382,0,0,1-2.661-1.108C138.149,9.122,138.5,5.586,138.506,5.555Z" transform="translate(-131.852)" fill="#fb058d" stroke="#fb058d" stroke-width="0.5"/>
      <path id="Path_106" data-name="Path 106" d="M57.336,265.682v-.016c0-.041-.005-.083-.005-.129-.031-1.025-.1-3.422-2.345-4.188l-.052-.016a14.938,14.938,0,0,1-4.3-1.957.7.7,0,1,0-.8,1.144,16.123,16.123,0,0,0,4.727,2.159c1.206.43,1.341,1.719,1.377,2.9a1.04,1.04,0,0,0,.005.129,9.4,9.4,0,0,1-.109,1.6,19.053,19.053,0,0,1-9.127,2.123,19.162,19.162,0,0,1-9.132-2.128,8.9,8.9,0,0,1-.109-1.6c0-.041.005-.083.005-.129.036-1.18.171-2.469,1.377-2.9a16.275,16.275,0,0,0,4.727-2.159.7.7,0,1,0-.8-1.144,14.774,14.774,0,0,1-4.3,1.957c-.021.005-.036.01-.052.016-2.247.771-2.314,3.168-2.345,4.188a1.04,1.04,0,0,1-.005.129v.016a7.939,7.939,0,0,0,.264,2.345.664.664,0,0,0,.269.326,19.582,19.582,0,0,0,10.106,2.475,19.641,19.641,0,0,0,10.106-2.475.693.693,0,0,0,.269-.326A8.329,8.329,0,0,0,57.336,265.682Z" transform="translate(-36.073 -245.823)" fill="#fb058d" stroke="#fb058d" stroke-width="0.5"/>
    </g>
  </g>
</svg>
