<svg xmlns="http://www.w3.org/2000/svg" xmlns:xlink="http://www.w3.org/1999/xlink" width="53" height="53" viewBox="0 0 53 53">
  <defs>
    <style>
      .cls-1 {
        fill: #3d5a96;
      }

      .cls-2 {
        fill: #fff;
      }

      .cls-3 {
        filter: url(#Oval);
      }
    </style>
    <filter id="Oval" x="0" y="0" width="53" height="53" filterUnits="userSpaceOnUse">
      <feOffset dy="3" input="SourceAlpha"/>
      <feGaussianBlur stdDeviation="3" result="blur"/>
      <feFlood flood-opacity="0.161"/>
      <feComposite operator="in" in2="blur"/>
      <feComposite in="SourceGraphic"/>
    </filter>
  </defs>
  <g id="Group_4" data-name="Group 4" transform="translate(9 6)">
    <g class="cls-3" transform="matrix(1, 0, 0, 1, -9, -6)">
      <path id="Oval-2" data-name="Oval" class="cls-1" d="M17.5,0A17.5,17.5,0,1,1,0,17.5,17.5,17.5,0,0,1,17.5,0Z" transform="translate(9 6)"/>
    </g>
    <path id="Facebook" class="cls-2" d="M4.4,13.247H1.467V6.991H0V4.581H1.467V3.135C1.467,1.17,2.3,0,4.65,0h1.96V2.41H5.385c-.917,0-.978.336-.978.965l0,1.205h2.22l-.26,2.41H4.4v6.255Z" transform="translate(14 10.5)"/>
  </g>
</svg>
