<svg xmlns="http://www.w3.org/2000/svg" width="22.638" height="20" viewBox="0 0 22.638 20">
  <defs>
    <style>
      .cls-1 {
        fill: #5f10be;
      }
    </style>
  </defs>
  <g id="like" transform="translate(0 -29.836)">
    <g id="Group_168" data-name="Group 168" transform="translate(0 29.836)">
      <path id="Path_113" data-name="Path 113" class="cls-1" d="M20.987,31.8a5.7,5.7,0,0,0-9.1.655,8.68,8.68,0,0,0-.564.914,8.673,8.673,0,0,0-.564-.914,5.7,5.7,0,0,0-9.1-.655A6.862,6.862,0,0,0,0,36.358a8.4,8.4,0,0,0,2.314,5.514,51.526,51.526,0,0,0,5.792,5.412c.876.747,1.782,1.519,2.746,2.362l.029.025a.663.663,0,0,0,.874,0l.029-.025c.964-.844,1.87-1.616,2.747-2.362a51.519,51.519,0,0,0,5.792-5.412,8.4,8.4,0,0,0,2.314-5.514A6.862,6.862,0,0,0,20.987,31.8ZM13.671,46.274c-.755.644-1.532,1.306-2.352,2.018-.819-.712-1.6-1.375-2.352-2.018-4.6-3.921-7.641-6.511-7.641-9.916a5.538,5.538,0,0,1,1.32-3.681,4.427,4.427,0,0,1,3.366-1.515,4.471,4.471,0,0,1,3.66,2.06,7.863,7.863,0,0,1,1.015,2.019.663.663,0,0,0,1.261,0,7.864,7.864,0,0,1,1.015-2.019,4.378,4.378,0,0,1,7.026-.545,5.538,5.538,0,0,1,1.32,3.681C21.312,39.763,18.272,42.354,13.671,46.274Z" transform="translate(0 -29.836)"/>
    </g>
  </g>
</svg>
