<svg xmlns="http://www.w3.org/2000/svg" width="22.824" height="25" viewBox="0 0 22.824 25"><defs><style>.a{fill:#fb058d;}</style></defs><path class="a" d="M98.959,81.32A9.265,9.265,0,0,1,97.4,76.164V70.936a8.014,8.014,0,0,0-7.076-7.959V61H88.4v1.985a8.081,8.081,0,0,0-7.026,8.028v5.151a9.265,9.265,0,0,1-1.561,5.156l-1.838,2.757h8.693a2.884,2.884,0,0,0,5.438,0H100.8Zm-17.4.834a11.18,11.18,0,0,0,1.733-5.99V71.012a6.14,6.14,0,0,1,6.068-6.166h.022a6.09,6.09,0,0,1,6.09,6.09v5.228a11.179,11.179,0,0,0,1.733,5.99Z" transform="translate(-77.973 -61)"/></svg>