<svg xmlns="http://www.w3.org/2000/svg" xmlns:xlink="http://www.w3.org/1999/xlink" width="49" height="49" viewBox="0 0 49 49"><defs><linearGradient id="a" x1="0.5" x2="0.5" y2="1" gradientUnits="objectBoundingBox"><stop offset="0" stop-color="#7e7eff"/><stop offset="1" stop-color="#1313be"/></linearGradient></defs><g transform="translate(-163 -94)"><g transform="translate(-17736 -5284)"><circle cx="24.5" cy="24.5" r="24.5" transform="translate(17899 5378)" fill="url(#a)"/></g><path d="M22.11,11.059a1.013,1.013,0,0,0-.476.128L18.31,12.929c-.042.022-.126.047-.126.074V11.9A1.172,1.172,0,0,0,17,10.72h-.333A5.532,5.532,0,1,0,7.575,5.525,3.774,3.774,0,0,0,.654,7.619a3.846,3.846,0,0,0,1.61,3.1H1.23A1.208,1.208,0,0,0,0,11.9v8.374a1.21,1.21,0,0,0,1.23,1.181h.853v1.122a1.247,1.247,0,0,0,1.253,1.2H14.889a1.211,1.211,0,0,0,1.212-1.2V21.454H17a1.175,1.175,0,0,0,1.189-1.181v-1.1c0,.027.087.052.129.074l3.323,1.742a1,1,0,0,0,.472.128.821.821,0,0,0,.8-.911V11.971A.82.82,0,0,0,22.11,11.059ZM7.987,8.892A6.193,6.193,0,0,0,9.35,10.72H6.595A3.956,3.956,0,0,0,7.987,8.892ZM5.928,14.645a.641.641,0,0,1-.641.641H3.2a.641.641,0,0,1-.641-.641v-.881a.641.641,0,0,1,.641-.641H5.287a.641.641,0,0,1,.641.641Zm7.69,3.685a.641.641,0,0,1-.641.641H3.2a.641.641,0,0,1-.641-.641v-.881a.641.641,0,0,1,.641-.641h9.773a.641.641,0,0,1,.641.641Z" transform="translate(176.09 105.968)" fill="#fff"/></g></svg>