<svg xmlns="http://www.w3.org/2000/svg" width="50" height="49" viewBox="0 0 50 49"><g transform="translate(-162 -94)"><ellipse cx="25" cy="24.5" rx="25" ry="24.5" transform="translate(162 94)" fill="#fff"/><path d="M26.057,12.849A1.194,1.194,0,0,0,25.5,13l-3.917,2.053c-.049.026-.148.056-.148.088v-1.3a1.382,1.382,0,0,0-1.4-1.389h-.393A6.52,6.52,0,1,0,8.928,6.327,4.447,4.447,0,0,0,.77,8.794a4.532,4.532,0,0,0,1.9,3.655H1.449A1.423,1.423,0,0,0,0,13.838v9.869A1.426,1.426,0,0,0,1.449,25.1H2.455v1.322a1.47,1.47,0,0,0,1.476,1.415H17.547a1.428,1.428,0,0,0,1.428-1.415V25.1h1.053a1.385,1.385,0,0,0,1.4-1.392V22.4c0,.032.1.062.152.088L25.5,24.545a1.174,1.174,0,0,0,.556.15A.967.967,0,0,0,27,23.621v-9.7A.966.966,0,0,0,26.057,12.849ZM9.413,10.3a7.3,7.3,0,0,0,1.606,2.154H7.772A4.663,4.663,0,0,0,9.413,10.3Zm-2.427,6.78a.755.755,0,0,1-.755.755H3.776a.755.755,0,0,1-.755-.755V16.036a.755.755,0,0,1,.755-.755H6.231a.755.755,0,0,1,.755.755Zm9.063,4.343a.755.755,0,0,1-.755.755H3.776a.755.755,0,0,1-.755-.755V20.379a.755.755,0,0,1,.755-.755H15.294a.755.755,0,0,1,.755.755Z" transform="translate(174 103.968)" fill="#949090"/></g></svg>