<svg id="Share" xmlns="http://www.w3.org/2000/svg" width="15.398" height="15" viewBox="0 0 15.398 15">
  <defs>
    <style>
      .cls-1 {
        fill: none;
      }

      .cls-1, .cls-2 {
        fill-rule: evenodd;
      }

      .cls-2 {
        fill: #da2e73;
      }
    </style>
  </defs>
  <path id="path" class="cls-1" d="M0,0H15.4V15H0Z"/>
  <path id="ic_share" class="cls-2" d="M10.781,9.747a1.465,1.465,0,0,0-1.017.424l-3.7-2.283a1.612,1.612,0,0,0,0-.77L9.723,4.855a1.5,1.5,0,0,0,1.058.446A1.6,1.6,0,0,0,12.338,3.65a1.559,1.559,0,1,0-3.113,0,1.9,1.9,0,0,0,.047.385L5.615,6.3a1.5,1.5,0,0,0-1.058-.446A1.6,1.6,0,0,0,3,7.5,1.6,1.6,0,0,0,4.556,9.152a1.5,1.5,0,0,0,1.058-.446L9.308,11a1.641,1.641,0,0,0-.042.358,1.517,1.517,0,1,0,1.515-1.607Z" transform="translate(0.03 0.02)"/>
</svg>
