<svg xmlns="http://www.w3.org/2000/svg" width="26.058" height="22.316" viewBox="0 0 26.058 22.316">
  <g id="speaker" transform="translate(0.5 -3.48)">
    <path id="Path_110" data-name="Path 110" d="M40.821,21.167,44.2,17.79a.463.463,0,0,0-.655-.655l-3.376,3.376L36.79,17.136a.463.463,0,1,0-.655.655l3.376,3.376-3.376,3.376a.463.463,0,1,0,.655.655l3.376-3.376L43.543,25.2a.463.463,0,0,0,.655-.655Z" transform="translate(-19.333 -6.982)" fill="#fff" stroke="#fff" stroke-width="1"/>
    <path id="Path_111" data-name="Path 111" d="M13.15,4.184a1.4,1.4,0,0,0-1.431.02.43.43,0,0,0-.06.043L5.386,9.554H.463A.463.463,0,0,0,0,10.017v8.8a.463.463,0,0,0,.463.463l4.912,0,6.27,5.759a.452.452,0,0,0,.075.056,1.4,1.4,0,0,0,1.431.02,1.445,1.445,0,0,0,.739-1.275V5.46A1.447,1.447,0,0,0,13.15,4.184Zm-.187,19.65a.531.531,0,0,1-.268.47.486.486,0,0,1-.463.012L6.018,18.608V16.5a.463.463,0,0,0-.926,0v1.85l-4.167,0V10.48H5.093v1.852a.463.463,0,0,0,.926,0v-2.1l6.206-5.25a.484.484,0,0,1,.47.008.53.53,0,0,1,.268.469Z" fill="#fff" stroke="#fff" stroke-width="1"/>
  </g>
</svg>
