<svg id="surface1" xmlns="http://www.w3.org/2000/svg" width="89.498" height="99" viewBox="0 0 89.498 99">
  <path id="Path_114" data-name="Path 114" d="M78.517,3.414A3.425,3.425,0,0,0,75.1,0H22.19V17.069a3.414,3.414,0,0,1-3.414,3.414H0v75.1A3.425,3.425,0,0,0,3.414,99H75.1a3.425,3.425,0,0,0,3.414-3.414ZM58.034,34.138ZM18.776,34.138ZM47.793,44.379ZM37.552,54.621ZM27.31,64.862Zm0,0" fill="#da2e73"/>
  <path id="Path_115" data-name="Path 115" d="M26.155,89.916l2.413-16.9,10.863,3.621L43.053,87.5Zm0,0" fill="#94d4d7"/>
  <path id="Path_116" data-name="Path 116" d="M22.19,99H75.1a3.414,3.414,0,0,0,3.414-3.414V46.241A85.532,85.532,0,0,1,22.19,99Zm0,0" fill="#c7175e"/>
  <path id="Path_117" data-name="Path 117" d="M64.779,36.81l4.827-4.827L84.09,46.466l-4.827,4.827Zm0,0" fill="#acabb1"/>
  <path id="Path_118" data-name="Path 118" d="M78.166,26.628a9.656,9.656,0,0,0-1.707.324,10.224,10.224,0,0,0-4.438,2.611l-2.406,2.424L84.089,46.462,86.5,44.055a10.241,10.241,0,0,0-8.329-17.427Zm0,0" fill="#c6c5ca"/>
  <path id="Path_119" data-name="Path 119" d="M64.787,36.8,28.566,73.021l9.668,4.824L59.951,56.119,38.234,77.845,40.414,82.2l2.653,5.291L78.175,52.386l1.093-1.093-2.8-2.8Zm.155,14.328,2.415-2.414Zm0,0" fill="#5f10be"/>
  <path id="Path_120" data-name="Path 120" d="M22.19,17.069V0L0,20.483H18.776A3.414,3.414,0,0,0,22.19,17.069Zm0,0" fill="#c7175e"/>
  <path id="Path_121" data-name="Path 121" d="M42.8,74.977A1.707,1.707,0,0,1,41.6,72.061L59.912,53.751a1.707,1.707,0,1,1,2.41,2.406L44.009,74.477A1.707,1.707,0,0,1,42.8,74.977Zm0,0" fill="#f1f2f2"/>
  <path id="Path_122" data-name="Path 122" d="M65.942,51.835a1.707,1.707,0,0,1-1.207-2.914l2.414-2.414a1.707,1.707,0,0,1,2.414,2.414l-2.414,2.414A1.7,1.7,0,0,1,65.942,51.835Zm0,0" fill="#f1f2f2"/>
  <path id="Path_123" data-name="Path 123" d="M47.793,46.086H11.948a1.707,1.707,0,0,1,0-3.414H47.793a1.707,1.707,0,0,1,0,3.414Zm0,0" fill="#fff"/>
  <path id="Path_124" data-name="Path 124" d="M37.552,56.328h-25.6a1.707,1.707,0,0,1,0-3.414h25.6a1.707,1.707,0,1,1,0,3.414Zm0,0" fill="#fff"/>
  <path id="Path_125" data-name="Path 125" d="M27.31,66.569H11.948a1.707,1.707,0,1,1,0-3.414H27.31a1.707,1.707,0,1,1,0,3.414Zm0,0" fill="#fff"/>
  <path id="Path_126" data-name="Path 126" d="M58.034,35.845H25.6a1.707,1.707,0,1,1,0-3.414H58.034a1.707,1.707,0,1,1,0,3.414Zm0,0" fill="#fff"/>
  <path id="Path_127" data-name="Path 127" d="M18.776,35.845H11.948a1.707,1.707,0,1,1,0-3.414h6.828a1.707,1.707,0,1,1,0,3.414Zm0,0" fill="#fff"/>
</svg>
