<svg xmlns="http://www.w3.org/2000/svg" width="49" height="49" viewBox="0 0 49 49"><g transform="translate(-289 -94)"><circle cx="24.5" cy="24.5" r="24.5" transform="translate(289 94)" fill="#fff"/><g transform="translate(301 105)"><path d="M23.046,3.954a13.5,13.5,0,0,0-20.93,16.8L.053,26.947l6.19-2.063a13.5,13.5,0,0,0,16.8-20.93ZM13.5,25.33a11.764,11.764,0,0,1-6.665-2.056l-.342-.234-3.8,1.266,1.266-3.8-.234-.342A11.83,11.83,0,1,1,13.5,25.33Z" transform="translate(0 0)" fill="#949090"/><circle cx="0.835" cy="0.835" r="0.835" transform="translate(17.119 12.665)" fill="#949090"/><circle cx="0.835" cy="0.835" r="0.835" transform="translate(8.211 12.665)" fill="#949090"/><circle cx="0.835" cy="0.835" r="0.835" transform="translate(12.665 12.665)" fill="#949090"/></g></g></svg>