<svg xmlns="http://www.w3.org/2000/svg" width="49" height="49" viewBox="0 0 49 49"><g transform="translate(-100 -94)"><circle cx="24.5" cy="24.5" r="24.5" transform="translate(100 94)" fill="#5f10be"/><g transform="translate(-12429 -45)"><path d="M75.579,60.3H73.656a10.49,10.49,0,0,0-.713-1.725L74.3,57.217a1.418,1.418,0,0,0,0-2.007L71.79,52.695a1.418,1.418,0,0,0-2.007,0l-1.361,1.361a10.5,10.5,0,0,0-1.725-.713V51.421A1.423,1.423,0,0,0,65.276,50H61.724A1.423,1.423,0,0,0,60.3,51.421v1.923a10.49,10.49,0,0,0-1.725.713L57.217,52.7a1.418,1.418,0,0,0-2.007,0L52.695,55.21a1.418,1.418,0,0,0,0,2.007l1.361,1.361a10.5,10.5,0,0,0-.713,1.725H51.421A1.423,1.423,0,0,0,50,61.724v3.553A1.423,1.423,0,0,0,51.421,66.7h1.922a10.489,10.489,0,0,0,.713,1.725l-1.361,1.361a1.418,1.418,0,0,0,0,2.007l2.515,2.515a1.418,1.418,0,0,0,2.007,0l1.361-1.361a10.5,10.5,0,0,0,1.725.713v1.922A1.423,1.423,0,0,0,61.724,77h3.553A1.423,1.423,0,0,0,66.7,75.579V73.656a10.49,10.49,0,0,0,1.725-.713L69.783,74.3a1.418,1.418,0,0,0,2.007,0l2.515-2.515a1.418,1.418,0,0,0,0-2.007l-1.361-1.361a10.5,10.5,0,0,0,.713-1.725h1.922A1.423,1.423,0,0,0,77,65.276V61.724A1.423,1.423,0,0,0,75.579,60.3Zm0,4.974H73.121a.711.711,0,0,0-.688.533,9.066,9.066,0,0,1-.981,2.372.711.711,0,0,0,.108.866L73.3,70.785,70.788,73.3l-1.741-1.741a.711.711,0,0,0-.866-.108,9.064,9.064,0,0,1-2.372.981.711.711,0,0,0-.533.688v2.458H61.724V73.121a.711.711,0,0,0-.533-.688,9.066,9.066,0,0,1-2.372-.981.71.71,0,0,0-.865.108L56.215,73.3,53.7,70.788l1.741-1.741a.711.711,0,0,0,.108-.866,9.064,9.064,0,0,1-.981-2.372.711.711,0,0,0-.688-.533H51.421V61.724h2.458a.711.711,0,0,0,.688-.533,9.066,9.066,0,0,1,.981-2.372.711.711,0,0,0-.108-.866L53.7,56.215,56.212,53.7l1.741,1.741a.711.711,0,0,0,.866.108,9.064,9.064,0,0,1,2.372-.981.711.711,0,0,0,.533-.688V51.421h3.553v2.458a.711.711,0,0,0,.533.688,9.066,9.066,0,0,1,2.372.981.711.711,0,0,0,.866-.108L70.785,53.7,73.3,56.212l-1.741,1.741a.711.711,0,0,0-.108.866,9.064,9.064,0,0,1,.981,2.372.711.711,0,0,0,.688.533h2.458Z" transform="translate(12490 100)" fill="#fff"/><path d="M181.481,243.728l-2.842-2.487-.936,1.069,1.419,1.242h-4.148A3.557,3.557,0,0,1,171.421,240H170a4.979,4.979,0,0,0,4.974,4.974h4.148l-1.419,1.242.936,1.069,2.842-2.487a.71.71,0,0,0,0-1.069Z" transform="translate(12378.526 -76.5)" fill="#fff"/><path d="M149.021,142.448l-1.419-1.242h4.148a3.557,3.557,0,0,1,3.553,3.553h1.421a4.979,4.979,0,0,0-4.974-4.974H147.6l1.419-1.242-.936-1.069-2.842,2.487a.71.71,0,0,0,0,1.069l2.842,2.487Z" transform="translate(12401.75 18.741)" fill="#fff"/></g></g></svg>