<svg xmlns="http://www.w3.org/2000/svg" width="49" height="49" viewBox="0 0 49 49"><g transform="translate(-36 -94)"><circle cx="24.5" cy="24.5" r="24.5" transform="translate(36 94)" fill="#5f10be"/><g transform="translate(-59 105)"><g transform="translate(113.2 5.4)"><g transform="translate(0)"><path d="M186.9,60a.9.9,0,1,0,.9.9A.9.9,0,0,0,186.9,60Z" transform="translate(-186 -60)" fill="#fff"/></g></g><g transform="translate(116.742 7.2)"><path d="M228.118,85.4a.9.9,0,0,1,0-1.8,1.445,1.445,0,0,1,.973.47.9.9,0,0,0,1.252-1.294,3.477,3.477,0,0,0-1.325-.828V80.9a.9.9,0,1,0-1.8,0v1.055a2.7,2.7,0,0,0,.9,5.245.9.9,0,0,1,0,1.8,1.629,1.629,0,0,1-1.169-.681.9.9,0,0,0-1.378,1.158,3.732,3.732,0,0,0,1.646,1.172V91.7a.9.9,0,1,0,1.8,0V90.645a2.7,2.7,0,0,0-.9-5.245Z" transform="translate(-225.361 -80)" fill="#fff"/></g><g transform="translate(106)"><g transform="translate(0)"><path d="M119.5,0A13.5,13.5,0,1,0,133,13.5,13.515,13.515,0,0,0,119.5,0Zm0,25.2a11.7,11.7,0,1,1,11.7-11.7A11.713,11.713,0,0,1,119.5,25.2Z" transform="translate(-106)" fill="#fff"/></g></g><g transform="translate(109.6 3.603)"><g transform="translate(0)"><path d="M162.115,42.222a9.968,9.968,0,0,0-8.408-1.957.9.9,0,1,0,.379,1.76,8.176,8.176,0,0,1,6.9,1.6A8.1,8.1,0,1,1,148.758,46.1a.9.9,0,1,0-1.586-.851,9.9,9.9,0,1,0,14.943-3.031Z" transform="translate(-146 -40.031)" fill="#fff"/></g></g></g></g></svg>