<svg xmlns="http://www.w3.org/2000/svg" width="50" height="49" viewBox="0 0 50 49"><g transform="translate(-225 -94)"><ellipse cx="25" cy="24.5" rx="25" ry="24.5" transform="translate(225 94)" fill="#fff"/><g transform="translate(236.875 104.999)"><path d="M.125,13.493a13.41,13.41,0,0,0,2.289,7.526,1.124,1.124,0,0,0,1.864-1.257A11.25,11.25,0,0,1,17.7,3.013a1.123,1.123,0,0,0,.762,2.1l2.31-.591a1.124,1.124,0,0,0,.811-1.368l-.054-.209c0-.018-.009-.035-.013-.052L20.989.847a1.122,1.122,0,0,0-2.205.186A13.487,13.487,0,0,0,.125,13.493Zm0,0" transform="translate(0 0)" fill="#949090"/><path d="M95.86,78.04a1.124,1.124,0,0,0-.3,1.56,11.249,11.249,0,0,1-13.47,16.728,1.121,1.121,0,0,0-.762-2.1l-2.294.654a1.125,1.125,0,0,0-.773,1.39l.654,2.293a1.125,1.125,0,0,0,1.08.816,1.11,1.11,0,0,0,.309-.044,1.121,1.121,0,0,0,.808-.979A13.5,13.5,0,0,0,97.421,78.344a1.124,1.124,0,0,0-1.561-.3Zm0,0" transform="translate(-72.602 -72.377)" fill="#949090"/><path d="M120.125,129.006a1.124,1.124,0,0,0,2.249,0,2.251,2.251,0,0,1,2.249-2.249h1.124a2.251,2.251,0,0,1,2.249,2.249,1.124,1.124,0,0,0,2.249,0,4.494,4.494,0,0,0-2.192-3.854,3.373,3.373,0,1,0-5.735,0A4.494,4.494,0,0,0,120.125,129.006Zm5.059-6.746a1.124,1.124,0,1,1-1.124,1.124A1.125,1.125,0,0,1,125.184,122.261Zm0,0" transform="translate(-111.568 -111.578)" fill="#949090"/></g></g></svg>