<svg xmlns="http://www.w3.org/2000/svg" xmlns:xlink="http://www.w3.org/1999/xlink" width="53" height="53" viewBox="0 0 53 53">
  <defs>
    <style>
      .cls-1 {
        fill: #f52929;
      }

      .cls-2 {
        fill: #fff;
      }

      .cls-3 {
        filter: url(#Oval);
      }
    </style>
    <filter id="Oval" x="0" y="0" width="53" height="53" filterUnits="userSpaceOnUse">
      <feOffset dy="3" input="SourceAlpha"/>
      <feGaussianBlur stdDeviation="3" result="blur"/>
      <feFlood flood-opacity="0.161"/>
      <feComposite operator="in" in2="blur"/>
      <feComposite in="SourceGraphic"/>
    </filter>
  </defs>
  <g id="Group_3" data-name="Group 3" transform="translate(9 6)">
    <g class="cls-3" transform="matrix(1, 0, 0, 1, -9, -6)">
      <circle id="Oval-2" data-name="Oval" class="cls-1" cx="17.5" cy="17.5" r="17.5" transform="translate(9 6)"/>
    </g>
    <path id="Youtube" class="cls-2" d="M8.06,12.537h0c-.042,0-4.212-.03-5.475-.171-.068-.016-.151-.028-.246-.042A2.26,2.26,0,0,1,.806,11.6,4.287,4.287,0,0,1,.167,9.831,28.541,28.541,0,0,1,0,6.953V5.613C0,4.179.165,2.721.167,2.707A3.9,3.9,0,0,1,.806.94,2.2,2.2,0,0,1,2.37.2h0l.045,0C4.643.031,8.026,0,8.06,0S11.477.031,13.7.2l.076.006A2.052,2.052,0,0,1,15.314.94a4.287,4.287,0,0,1,.639,1.767c0,.015.167,1.471.167,2.906v1.34c0,1.406-.165,2.863-.167,2.878a4.288,4.288,0,0,1-.639,1.767,2.2,2.2,0,0,1-1.564.736h0l-.045,0C11.476,12.535,8.094,12.537,8.06,12.537ZM6.114,3.391V9.574l5.281-3.02Z" transform="translate(9.333 11.667)"/>
  </g>
</svg>
