<svg xmlns="http://www.w3.org/2000/svg" viewBox="0 0 12.31 14.55"><defs><style>.cls-1{fill:#da2e73;}</style></defs><title>Asset 3</title><g id="Layer_2" data-name="Layer 2"><g id="Layer_1-2" data-name="Layer 1"><path id="pending_shipments" data-name="pending shipments" class="cls-1" d="M10.51,1.8A6.16,6.16,0,0,0,0,6.11H0l0,0L3.41,11v3.59h5.5V11l3.38-4.8,0,0h0A6.15,6.15,0,0,0,10.51,1.8ZM6.16.86a5.3,5.3,0,0,1,5.23,4.46h0a2.08,2.08,0,0,0-1-.23A2.36,2.36,0,0,0,9,5.65a2.19,2.19,0,0,0-1.5-.56,2.39,2.39,0,0,0-1.37.56,2.17,2.17,0,0,0-1.5-.56,2.36,2.36,0,0,0-1.36.56,2.19,2.19,0,0,0-1.5-.56,2.39,2.39,0,0,0-.87.23h0A5.31,5.31,0,0,1,6.16.86ZM8.06,13.7H4.26V11.23h3.8ZM5.71,10.38H5.32l-1.53-4a1.51,1.51,0,0,1,.89-.4,1.48,1.48,0,0,1,1,.45Zm.85,0v-4a1.57,1.57,0,0,1,1-.49,1.44,1.44,0,0,1,1,.4L7,10.38ZM1.1,6.2a1.43,1.43,0,0,1,.72-.26,1.54,1.54,0,0,1,1.11.54l1.48,3.9H4Zm7.18,4.18H7.89L9.36,6.49a1.69,1.69,0,0,1,1.05-.55,1.35,1.35,0,0,1,.8.27h0Z"/></g></g></svg>