<svg xmlns="http://www.w3.org/2000/svg" viewBox="0 0 13.37 13.06"><defs><style>.cls-1{fill:#da2e73;}</style></defs><title>Asset 4</title><g id="Layer_2" data-name="Layer 2"><g id="Layer_1-2" data-name="Layer 1"><g id="_002-discount" data-name=" 002-discount"><g id="Group_92" data-name="Group 92"><g id="Group_91" data-name="Group 91"><path id="Path_47" data-name="Path 47" class="cls-1" d="M12.73,6.69a.33.33,0,0,1,0-.33l.52-1a1.11,1.11,0,0,0-.47-1.49l0,0-1.05-.52a.38.38,0,0,1-.21-.28L11.27,2A1.21,1.21,0,0,0,9.9,1l-1.17.16a.41.41,0,0,1-.35-.1L7.53.32a1.27,1.27,0,0,0-1.69,0L5,1.09a.39.39,0,0,1-.34.1L3.48,1A1.21,1.21,0,0,0,2.11,2l-.2,1.09a.38.38,0,0,1-.21.28l-1,.52A1.09,1.09,0,0,0,.11,5.31l0,.06.52,1a.33.33,0,0,1,0,.32l-.52,1A1.12,1.12,0,0,0,.59,9.18l.06,0,1,.52A.38.38,0,0,1,1.9,10l.2,1.09A1.18,1.18,0,0,0,3.29,12h.18l1.17-.15A.39.39,0,0,1,5,12l.85.77a1.27,1.27,0,0,0,1.69,0L8.37,12a.41.41,0,0,1,.35-.1L9.89,12a1.19,1.19,0,0,0,1.37-.93l.2-1.09a.4.4,0,0,1,.22-.27l1-.52a1.11,1.11,0,0,0,.55-1.46l0-.06Zm-.39,1.85-1,.52a1.11,1.11,0,0,0-.63.81L10.47,11a.41.41,0,0,1-.46.32l-1.17-.16a1.27,1.27,0,0,0-1,.31L7,12.2a.42.42,0,0,1-.57,0l-.85-.77a1.24,1.24,0,0,0-.84-.32H4.54l-1.18.16A.42.42,0,0,1,2.9,11L2.7,9.87a1.12,1.12,0,0,0-.62-.81L1,8.54A.37.37,0,0,1,.85,8h0l.52-1a1,1,0,0,0,0-1L.85,5A.39.39,0,0,1,1,4.52H1L2.08,4a1.16,1.16,0,0,0,.62-.81l.2-1.1a.4.4,0,0,1,.46-.31l1.18.15a1.25,1.25,0,0,0,1-.31L6.4.85A.44.44,0,0,1,7,.85l.85.77a1.27,1.27,0,0,0,1,.31L10,1.78a.4.4,0,0,1,.46.31l.2,1.1A1.15,1.15,0,0,0,11.3,4l1,.52a.37.37,0,0,1,.19.49V5L12,6a1,1,0,0,0,0,1l.52,1a.38.38,0,0,1-.16.5Z"/></g></g><g id="Group_94" data-name="Group 94"><g id="Group_93" data-name="Group 93"><path id="Path_48" data-name="Path 48" class="cls-1" d="M9.67,3.55a.41.41,0,0,0-.58,0L3.71,8.93a.41.41,0,1,0,.57.58h0L9.67,4.12A.4.4,0,0,0,9.67,3.55Z"/></g></g><g id="Group_96" data-name="Group 96"><g id="Group_95" data-name="Group 95"><path id="Path_49" data-name="Path 49" class="cls-1" d="M5.09,3.07a1.5,1.5,0,1,0,1.5,1.5,1.5,1.5,0,0,0-1.5-1.5Zm0,2.17a.68.68,0,0,1,0-1.36.69.69,0,0,1,.68.68h0A.68.68,0,0,1,5.09,5.24Z"/></g></g><g id="Group_98" data-name="Group 98"><g id="Group_97" data-name="Group 97"><path id="Path_50" data-name="Path 50" class="cls-1" d="M8.29,7a1.5,1.5,0,1,0,1.5,1.5A1.5,1.5,0,0,0,8.29,7Zm0,2.18A.68.68,0,1,1,9,8.5H9A.69.69,0,0,1,8.29,9.18Z"/></g></g></g></g></g></svg>